<svg xmlns="http://www.w3.org/2000/svg" viewBox="0 0 512 512" preserveAspectRatio="xMidYMid meet" xmlns:v="https://vecta.io/nano"><path d="M88.5.7C46 6.1 12 36.9 2.4 78.5.6 86.1.5 94.6.5 256l1.9 177.5c8.7 38 38.1 67.4 76.1 76.1 7.6 1.8 16.1 1.9 177.5 1.9l177.5-1.9c38-8.7 67.4-38.1 76.1-76.1 1.8-7.6 1.9-16.1 1.9-177.5l-1.9-177.5c-8.6-37.3-36.3-65.6-74.1-75.8l-8-2.2-168-.1C167.1.3 90.2.5 88.5.7zM363 59.3c36.8 36.5 39.1 39.1 38.8 42.1-.3 2.8-10.3 12.8-78.5 78.5L245 256c0 .5 35.2 34.5 78.3 75.6 74.8 71.5 78.2 75 78.2 78.4 0 3.3-2.3 5.8-39.3 42.4l-39.3 39-51.2-51-115-114.3-63.8-63.3.3-7.6.3-7.7L208 133.8 323.2 20.3c.3.1 18.2 17.7 39.8 39z" fill="#15141f"/></svg>